<svg xmlns="http://www.w3.org/2000/svg" width="40" height="40" viewBox="0 0 40 40" fill="none" stroke="currentColor" stroke-width="2" stroke-linecap="round" stroke-linejoin="round" style="background:#059669; border-radius:8px; display:block;">
  <!-- background rect -->
  <rect width="40" height="40" rx="8" ry="8" fill="#059669"></rect>
  
  <!-- sprout icon group, centered -->
  <g transform="translate(8, 8)" stroke="white" fill="none">
    <path d="M7 20h10"></path>
    <path d="M10 20c5.5-2.5.8-6.4 3-10"></path>
    <path d="M9.5 9.4c1.1.8 1.8 2.2 2.3 3.7-2 .4-3.5.4-4.8-.3-1.2-.6-2.3-1.9-3-4.2 2.8-.5 4.4 0 5.5.8z"></path>
    <path d="M14.1 6a7 7 0 0 0-1.1 4c1.9-.1 3.3-.6 4.3-1.4 1-1 1.6-2.3 1.7-4.6-2.7.1-4 1-4.9 2z"></path>
  </g>
</svg>
